<?xml version="1.0" standalone="no"?><svg data-noselect="" 
  viewBox="126.45542968072377 129.55362753642 450 337.75315971444" 
  width="450" 
  height="337.75315971444" 
  ref="svg_canvas" 
  preserveAspectRatio="none" 
  version="1.1" xmlns="http://www.w3.org/2000/svg" 
  style="background: #ffffff;">
    <defs></defs>
    <g id="shape_c2nEUbCsnV" class=""  ref="shape_c2nEUbCsnV" key="shape_c2nEUbCsnV" transform="translate(252.62780772437,209.55362753642) rotate(0,95.686096137815,88.87657985722) scale(1,1)" style="cursor:move;display:inline;opacity:1;" filter="">
            <g style="display:inline"><rect fill="rgba(0,0,0,0)" width="211.37219227563062" height="197.75315971444013" x="-10" y="-10"></rect><svg version="1.1" id="图层_1" xmlns="http://www.w3.org/2000/svg" xmlns:xlink="http://www.w3.org/1999/xlink" x="0px" y="0px" width="191.37219227563062" height="177.75315971444013" viewBox="0 0 227.78 211.57" style="enable-background:new 0 0 227.78 211.57;" xml:space="preserve" class="style-removed" preserveAspectRatio="none" data-parent="shape_c2nEUbCsnV">

<g>
	<path d="M215.63,209.92h-11H128.1c-3.13,0-5.68-2.55-5.68-5.68s2.55-5.68,5.68-5.68h14.04h11
		c4.04,0,7.33-3.29,7.33-7.33s-3.29-7.33-7.33-7.33h-11H111.5H95c-3.74,0-6.78-3.04-6.78-6.78s3.04-6.78,6.78-6.78h13.62
		c0.46,0,0.83-0.37,0.83-0.83s-0.37-0.83-0.83-0.83H95c-4.65,0-8.43,3.78-8.43,8.43s3.78,8.43,8.43,8.43h16.5h30.64
		c3.13,0,5.68,2.55,5.68,5.68c0,3.13-2.55,5.68-5.68,5.68H128.1h-11c-4.04,0-7.33,3.29-7.33,7.33s3.29,7.33,7.33,7.33h11h76.53h11
		c0.46,0,0.83-0.37,0.83-0.83S216.08,209.92,215.63,209.92z M149.47,191.22c0-2.29-1.06-4.34-2.71-5.68h6.37
		c3.13,0,5.68,2.55,5.68,5.68c0,3.13-2.55,5.68-5.68,5.68h-6.37C148.41,195.56,149.47,193.51,149.47,191.22z M117.1,209.92
		c-3.13,0-5.68-2.55-5.68-5.68s2.55-5.68,5.68-5.68h6.37c-1.65,1.35-2.71,3.39-2.71,5.68s1.06,4.34,2.71,5.68H117.1z" fill="#C69E66" stroke-width="0"></path>
	<path d="M227.76,91.84C221.61,39.48,177.16,0,124.36,0C79.3,0,40.82,28.78,26.37,68.94H7.61
		C3.42,68.94,0,72.35,0,76.55c0,4.19,3.42,7.6,7.61,7.6h14.57c-1.27,6.46-1.93,13.13-1.93,19.96c0,47.99,32.49,89.55,79.02,101.07
		c0.2,0.05,0.4,0.07,0.59,0.07c1.12,0,2.13-0.75,2.41-1.88c0.32-1.33-0.49-2.67-1.81-3c-44.31-10.96-75.26-50.55-75.26-96.26
		c0-6.79,0.69-13.42,1.99-19.83c0.01-0.04,0.02-0.09,0.03-0.13H50.2h8.53h1.47h6.38c3.13,0,5.68,2.55,5.68,5.69
		c0,3.13-2.55,5.68-5.68,5.68h-1.1H60.2h-1.45h-4.97h-7.29h-11c-4.04,0-7.33,3.29-7.33,7.34c0,4.04,3.29,7.33,7.33,7.33h11h37.6
		h2.46c0.45,0,0.82-0.37,0.82-0.82c0-0.46-0.37-0.83-0.82-0.83h-1.96h-0.5h-1.12H46.49c-3.13,0-5.68-2.55-5.68-5.68
		c0-3.14,2.55-5.69,5.68-5.69h9.09h2.11h8.89c0.34,0,0.68-0.02,1.01-0.08c3.57-0.49,6.32-3.55,6.32-7.25c0-4.05-3.29-7.34-7.33-7.34
		h-11h-7.59H27.58h-2.64h-2.43H7.61c-3.29,0-5.96-2.67-5.96-5.95c0-3.29,2.67-5.96,5.96-5.96h18.18h5.08c0.06,0,0.12-0.01,0.18-0.03
		c0.2-0.04,0.36-0.15,0.48-0.31c0.1-0.13,0.16-0.3,0.16-0.49c0-0.18-0.06-0.35-0.16-0.49C45.65,31.73,81.94,4.95,124.36,4.95
		c50.29,0,92.63,37.6,98.49,87.47c0.16,1.36,1.38,2.33,2.74,2.17C226.95,94.43,227.92,93.2,227.76,91.84z M39.16,102.86
		c0,2.29,1.06,4.34,2.71,5.68h-6.38c-3.13,0-5.68-2.55-5.68-5.68c0-3.14,2.55-5.69,5.68-5.69h6.38
		C40.22,98.51,39.16,100.56,39.16,102.86z" fill="#C69E66" stroke-width="0"></path>
</g>
</svg></g>
        </g><g id="shape_KgCFdDfFBb" class="brand_number"  ref="shape_KgCFdDfFBb" key="shape_KgCFdDfFBb" transform="translate(247.052422320924,18.07362753642002) rotate(0,94.982549522044,229.48) scale(1,1)" style="cursor:move;display:inline;opacity:1;" filter="">
            <g style="display:inline"><svg xmlns="http://www.w3.org/2000/svg" version="1.1" xmlns:xlink="http://www.w3.org/1999/xlink" width="318.48" height="458.96000000000004" viewBox="0 0 318.48 458.96000000000004" preserveAspectRatio="none" data-parent="shape_KgCFdDfFBb"><rect fill="rgba(0,0,0,0)" width="64" height="76" x="63.62" y="191.48"></rect><g data-width="63.62" transform="translate(63.81, 0)"><path d="M18.13-16.67L17.81-17.11Q17.69-17.18 17.62-17.27Q17.56-17.37 17.62-17.43L17.62-17.43Q17.62-17.62 17.56-17.78Q17.50-17.94 17.43-18.00L17.43-18.00L16.48-19.28Q16.41-19.40 16.41-19.59L16.41-19.59L16.29-20.55Q16.22-21.06 15.90-21.31L15.90-21.31Q15.46-22.27 14.82-22.78L14.82-22.78Q14.82-22.84 14.73-22.87Q14.63-22.90 14.63-22.84L14.63-22.84Q14.31-22.78 14.19-22.97L14.19-22.97L14.00-23.35Q13.81-23.73 13.42-23.54L13.42-23.54L13.11-23.54Q12.98-23.54 12.85-23.41L12.85-23.41Q12.22-22.84 11.90-22.08L11.90-22.08Q11.64-21.44 11.45-20.74L11.45-20.74Q11.20-19.59 11.13-19.02L11.13-19.02Q11.07-18.39 11.07-17.05L11.07-17.05Q11.01-16.73 11.04-16.22Q11.07-15.71 11.07-15.46L11.07-15.46L11.07-14.51Q11.20-13.93 11.29-13.07Q11.39-12.22 11.45-11.77L11.45-11.77Q11.58-11.20 11.45-10.82L11.45-10.82Q11.39-10.56 11.26-10.31Q11.13-10.05 11.07-9.80L11.07-9.80Q11.01-9.61 11.01-9.16L11.01-9.16L11.07-9.10Q11.07-9.03 11.13-9.00Q11.20-8.97 11.20-8.91L11.20-8.91Q11.39-8.72 11.55-8.46Q11.71-8.21 11.83-8.02L11.83-8.02Q12.09-7.83 12.98-6.81L12.98-6.81Q13.04-6.81 13.04-6.68L13.04-6.68Q13.04-6.43 13.30-6.17Q13.55-5.92 13.87-5.79L13.87-5.79L14.00-5.66Q14.25-4.90 14.44-4.52L14.44-4.52L15.01-3.12Q15.08-2.99 15.33-2.86L15.33-2.86Q15.40-2.86 15.52-2.74L15.52-2.74Q15.52-2.74 15.71-2.54L15.71-2.54Q16.10-2.29 16.16-2.10L16.16-2.10Q16.16-1.97 16.48-1.46L16.48-1.46Q16.60-1.34 16.89-1.34Q17.18-1.34 17.24-1.59L17.24-1.59Q17.56-1.59 17.69-1.65L17.69-1.65Q18.32-1.65 18.80-1.72Q19.28-1.78 19.66-1.84L19.66-1.84L19.85-1.84Q20.29-2.04 20.68-1.84L20.68-1.84L21.19-2.04Q21.31-1.84 21.47-1.84Q21.63-1.84 21.69-1.84L21.69-1.84L22.84-1.84L24.56-1.84Q25.13-1.84 25.45-1.91L25.45-1.91Q26.15-1.91 27.42-2.04L27.42-2.04Q28.25-2.04 29.77-2.16L29.77-2.16Q30.28-2.23 30.79-2.19Q31.30-2.16 31.81-2.23L31.81-2.23Q33.34-2.48 34.10-2.54L34.10-2.54Q34.48-2.54 34.83-2.64Q35.18-2.74 35.56-2.74L35.56-2.74Q36.26-2.74 37.54-3.12L37.54-3.12L37.85-3.18Q38.04-3.24 38.55-3.24L38.55-3.24L40.02-3.37L41.80-3.50L42.31-3.56L42.43-3.56L42.94-3.50L44.28-3.69Q44.60-3.69 45.11-3.82L45.11-3.82Q45.30-3.88 45.74-3.88L45.74-3.88Q46.63-3.94 47.71-4.39L47.71-4.39L47.84-4.45Q48.03-4.64 48.10-4.64L48.10-4.64Q48.48-4.77 48.48-5.03L48.48-5.03Q48.41-5.03 48.16-4.90L48.16-4.90Q48.03-4.77 48.03-4.96L48.03-4.96Q47.97-5.15 48.29-5.28L48.29-5.28L48.54-5.41Q48.61-5.53 48.80-5.69Q48.99-5.85 49.05-6.04L49.05-6.04Q49.37-6.43 49.88-6.62L49.88-6.62Q50.13-6.62 50.20-6.81L50.20-6.81Q50.32-6.93 50.32-7.00L50.32-7.00L50.07-7.13Q49.94-7.25 49.88-7.25L49.88-7.25L49.94-7.57Q50.20-7.63 50.71-7.63L50.71-7.63Q51.21-7.63 51.47-7.70L51.47-7.70L51.66-7.83Q51.66-8.08 51.98-8.21L51.98-8.21Q52.36-8.21 52.68-8.65L52.68-8.65Q53.50-9.48 53.70-10.56L53.70-10.56Q53.70-10.94 53.76-11.13L53.76-11.13L53.95-12.47L53.95-13.68L53.82-15.08L53.50-17.62L53.12-19.21L52.93-19.91L52.93-20.23L52.61-21.50L52.42-22.33Q52.36-22.46 52.26-22.78Q52.17-23.09 52.04-23.22L52.04-23.22Q52.04-23.28 51.60-23.92L51.60-23.92Q51.53-24.11 51.40-24.11L51.40-24.11L50.71-24.56Q50.01-25.19 49.11-25.77L49.11-25.77Q48.99-25.64 48.80-25.64L48.80-25.64L47.91-25.70Q47.65-25.70 47.52-25.45L47.52-25.45Q47.52-25.00 47.46-24.81L47.46-24.81Q47.33-24.49 47.30-24.11Q47.27-23.73 47.27-23.54L47.27-23.54Q47.14-22.84 47.27-22.27L47.27-22.27Q47.27-21.82 47.24-21.31Q47.21-20.80 47.27-20.42L47.27-20.42Q47.27-20.17 47.30-19.72Q47.33-19.28 47.46-18.96L47.46-18.96Q47.52-18.90 47.49-18.83Q47.46-18.77 47.46-18.70L47.46-18.70L47.40-18.45Q47.52-17.75 47.56-17.24Q47.59-16.73 47.59-16.41L47.59-16.41Q47.71-15.27 47.71-14.76L47.71-14.76L47.71-14.57Q47.71-14.57 47.68-14.44Q47.65-14.31 47.71-14.25L47.71-14.25L47.71-13.61Q47.71-13.17 47.52-12.66L47.52-12.66Q47.52-12.41 47.46-12.28L47.46-12.28L47.40-12.02Q47.52-11.77 47.27-11.83L47.27-11.83L46.76-11.90Q45.62-11.90 45.04-11.83L45.04-11.83Q44.79-11.83 44.31-11.80Q43.83-11.77 43.45-11.58L43.45-11.58L43.26-11.58Q43.20-11.58 43.13-11.61Q43.07-11.64 43.01-11.58L43.01-11.58L42.31-11.58L41.03-11.45L39.57-11.39Q38.94-11.26 38.55-11.26L38.55-11.26L35.63-11.01L33.59-10.69Q33.53-10.69 33.34-10.66Q33.15-10.62 33.08-10.43L33.08-10.43L32.83-10.56Q32.51-10.56 31.87-10.43L31.87-10.43L28.88-10.12Q28.25-10.05 26.97-10.05L26.97-10.05Q26.78-9.99 26.59-10.02Q26.40-10.05 26.28-10.05L26.28-10.05Q26.28-10.37 26.34-10.43L26.34-10.43Q26.53-10.69 26.66-11.26L26.66-11.26Q26.72-11.45 26.82-11.64Q26.91-11.83 26.97-12.02L26.97-12.02Q27.10-12.47 27.23-13.36L27.23-13.36L27.23-13.68Q27.36-14.19 27.36-14.31L27.36-14.31Q27.36-14.51 27.39-14.86Q27.42-15.21 27.55-15.46L27.55-15.46L27.55-15.59Q27.55-15.71 27.67-16.22L27.67-16.22Q27.74-16.48 27.80-16.80Q27.87-17.11 27.93-17.56L27.93-17.56L28.12-18.13Q28.18-18.51 28.25-18.90Q28.31-19.28 28.44-19.66L28.44-19.66L28.82-21.44L29.20-22.65Q29.33-23.41 29.39-23.48L29.39-23.48L29.77-24.37L30.35-25.96L30.66-26.72Q30.73-26.85 30.92-27.17L30.92-27.17L30.98-27.04Q31.11-26.78 31.27-26.47Q31.43-26.15 31.56-25.77L31.56-25.77Q31.75-25.26 32.00-24.65Q32.26-24.05 32.38-23.67L32.38-23.67Q32.57-23.09 32.80-22.43Q33.02-21.76 33.27-21.06L33.27-21.06L33.65-19.66Q33.91-18.32 34.10-17.50L34.10-17.50L34.35-16.73Q34.35-15.97 34.61-15.40L34.61-15.40Q34.99-14.25 35.12-13.68L35.12-13.68Q35.18-13.49 35.15-13.39Q35.12-13.30 34.93-13.23L34.93-13.23L34.86-12.72Q35.37-12.60 35.56-12.60L35.56-12.60Q35.75-12.53 36.20-12.53L36.20-12.53Q35.95-12.15 35.88-11.96L35.88-11.96L36.01-11.90Q36.20-11.64 36.45-11.71L36.45-11.71Q36.52-11.77 36.55-11.67Q36.58-11.58 36.65-11.58L36.65-11.58L36.90-11.45Q36.96-11.45 37.06-11.52Q37.15-11.58 37.22-11.58L37.22-11.58Q37.47-12.22 37.92-12.47L37.92-12.47Q38.36-12.34 38.43-12.41L38.43-12.41Q38.87-12.53 39.00-12.85L39.00-12.85Q39.06-12.98 39.25-13.33Q39.44-13.68 39.44-14.06L39.44-14.06L39.51-15.21Q39.51-15.46 39.57-15.65L39.57-15.65Q39.70-15.90 39.70-16.03L39.70-16.03Q39.70-16.29 39.67-16.64Q39.64-16.99 39.70-17.24L39.70-17.24L39.70-17.56Q39.70-18.20 39.44-19.21L39.44-19.21Q38.68-21.89 38.74-21.69L38.74-21.69L38.36-22.84Q38.24-23.09 38.14-23.44Q38.04-23.79 37.85-24.11L37.85-24.11Q37.79-24.30 37.66-24.53Q37.54-24.75 37.47-24.94L37.47-24.94Q37.34-25.26 37.15-25.80Q36.96-26.34 36.77-26.66L36.77-26.66L36.20-27.99L35.25-29.90Q35.12-30.09 34.99-30.28Q34.86-30.47 34.74-30.66L34.74-30.66Q34.23-31.68 33.91-32.06L33.91-32.06Q33.85-32.26 33.91-32.32L33.91-32.32Q34.10-32.51 33.91-32.64L33.91-32.64Q33.85-32.64 33.53-32.96L33.53-32.96Q33.53-33.02 33.50-33.05Q33.46-33.08 33.53-33.08L33.53-33.08Q33.91-33.85 34.04-34.23L34.04-34.23Q34.42-34.86 34.93-34.93L34.93-34.93L34.99-35.05Q34.99-35.18 34.86-35.69L34.86-35.69Q34.86-35.82 34.48-36.71L34.48-36.71Q34.42-36.84 34.29-36.90L34.29-36.90Q34.04-36.96 33.91-37.41L33.91-37.41Q33.91-37.98 33.53-38.04L33.53-38.04L33.53-38.11Q33.40-38.11 33.31-38.17Q33.21-38.24 33.15-38.30L33.15-38.30Q33.08-38.36 33.02-38.36Q32.96-38.36 32.96-38.43L32.96-38.43Q32.76-38.81 32.32-39.19L32.32-39.19Q32.06-39.32 31.62-39.76L31.62-39.76Q31.43-39.95 30.73-40.27L30.73-40.27L30.54-40.34Q30.41-40.34 30.25-40.24Q30.09-40.14 29.97-40.14L29.97-40.14L29.97-40.02Q29.84-39.64 29.84-39.44L29.84-39.44Q29.84-39.13 29.97-38.49L29.97-38.49Q29.97-38.11 29.90-37.98L29.90-37.98L29.27-36.45Q29.14-36.20 29.01-35.79Q28.88-35.37 28.63-35.18L28.63-35.18L28.63-35.12L28.44-34.80Q28.25-34.48 28.31-34.35L28.31-34.35Q28.44-34.29 28.25-34.10L28.25-34.10Q27.99-33.34 27.36-31.81L27.36-31.81L26.78-30.47Q26.72-30.22 26.56-29.71Q26.40-29.20 26.21-28.82L26.21-28.82Q25.58-26.72 25.13-25.13L25.13-25.13L24.75-23.54L24.37-22.14L23.79-19.15L23.41-16.86Q23.35-16.29 23.28-15.36Q23.22-14.44 23.03-13.23L23.03-13.23Q23.03-12.79 22.84-12.47L22.84-12.47Q22.78-12.22 22.81-11.90Q22.84-11.58 22.84-11.39L22.84-11.39L22.97-11.26Q23.09-11.13 23.09-11.01L23.09-11.01Q23.22-10.24 23.22-9.86L23.22-9.86Q23.35-9.67 23.09-9.67L23.09-9.67L21.69-9.67L19.53-9.61L18.39-9.61Q18.20-9.61 18.20-9.80L18.20-9.80L18.00-11.77Q18.00-12.72 17.94-13.23L17.94-13.23Q17.88-13.61 17.88-14.57L17.88-14.57Q17.81-15.01 17.81-15.97L17.81-15.97L17.81-16.16Q17.81-16.60 18.13-16.67L18.13-16.67Z" transform="translate(0 254.48) " fill="#c69e66" stroke="#c69e66" stroke-width="0.106" data-glyph-w="63.62" data-glyph-h="76.344" data-glyph-ascender="63.62" data-glyph-descender="-12.723999999999998"></path></g></svg></g>
        </g><g id="shape_yyEIln77Xq" class="brand_number"  ref="shape_yyEIln77Xq" key="shape_yyEIln77Xq" transform="translate(257.1359025698915,107.61394028875998) rotate(0,87.82602977101101,205) scale(1,1)" style="cursor:move;display:inline;opacity:1;" filter="">
            <g style="display:inline"><svg xmlns="http://www.w3.org/2000/svg" version="1.1" xmlns:xlink="http://www.w3.org/1999/xlink" width="284" height="410" viewBox="0 0 284 410" preserveAspectRatio="none" data-parent="shape_yyEIln77Xq"><rect fill="rgba(0,0,0,0)" width="57" height="68" x="56.75" y="171"></rect><g data-width="56.75" transform="translate(56.875, 0)"><path d="M26.96-25.14L27.47-25.76L28.94-27.18L30.64-28.89L32.12-30.64Q32.35-30.87 32.60-31.13Q32.86-31.38 33.09-31.61L33.09-31.61L34.28-32.91Q34.50-33.14 34.50-33.54L34.50-33.54Q34.50-34.11 34.05-34.45L34.05-34.45Q33.82-34.56 33.60-34.76Q33.37-34.96 33.03-35.19L33.03-35.19Q33.03-35.24 32.97-35.24Q32.91-35.24 32.86-35.19L32.86-35.19Q32.29-34.90 32.12-34.73L32.12-34.73Q32.06-34.67 31.89-34.67L31.89-34.67Q31.44-34.50 31.38-34.22L31.38-34.22Q31.27-33.82 31.10-33.54L31.10-33.54Q31.10-33.54 29.91-32.01L29.91-32.01L28.83-30.70L27.92-29.57L26.73-28.15Q25.82-27.13 25.42-26.56L25.42-26.56Q25.03-26.16 24.35-25.25L24.35-25.25Q24.12-25.14 24.06-25.14L24.06-25.14Q22.81-25.03 22.13-25.03L22.13-25.03Q21.68-24.97 20.71-24.97L20.71-24.97Q19.24-24.86 18.50-24.86L18.50-24.86Q18.44-24.86 18.39-24.91Q18.33-24.97 18.33-25.03L18.33-25.03Q18.33-25.42 18.44-25.99L18.44-25.99Q18.56-26.67 18.67-27.01L18.67-27.01Q18.67-27.07 18.73-27.13Q18.78-27.18 18.84-27.18L18.84-27.18Q19.35-27.18 19.58-27.24L19.58-27.24L20.54-27.18L22.36-27.35Q22.81-27.35 23.84-27.47L23.84-27.47Q24.57-27.47 25.37-27.81L25.37-27.81Q25.76-28.09 25.82-28.15L25.82-28.15Q25.88-28.26 25.96-28.52Q26.05-28.77 26.16-28.94L26.16-28.94Q26.28-29.06 26.39-29.28L26.39-29.28Q26.22-29.45 26.22-29.45L26.22-29.45Q26.22-29.45 26.39-29.62L26.39-29.62Q26.62-29.62 26.62-29.68L26.62-29.68Q26.73-29.91 26.98-30.02Q27.24-30.13 27.41-30.25L27.41-30.25Q27.64-30.42 27.72-30.59Q27.81-30.76 27.69-31.04L27.69-31.04Q27.52-31.38 27.47-31.64Q27.41-31.89 27.35-32.06L27.35-32.06Q27.35-32.35 27.64-32.35L27.64-32.35Q27.75-32.29 27.84-32.32Q27.92-32.35 28.03-32.35L28.03-32.35Q27.52-32.69 27.41-32.80L27.41-32.80Q27.30-32.97 27.13-33.03Q26.96-33.09 26.90-33.09L26.90-33.09Q26.56-33.14 26.11-33.26Q25.65-33.37 25.08-33.43L25.08-33.43Q24.52-33.48 23.27-33.48L23.27-33.48Q22.53-33.54 21.11-33.54L21.11-33.54Q20.60-33.54 19.81-33.43L19.81-33.43Q19.47-33.43 19.47-33.65L19.47-33.65L19.64-35.01L19.69-35.70Q19.69-35.98 19.52-36.38Q19.35-36.77 19.30-37.00L19.30-37.00Q19.18-37.17 18.90-37.17L18.90-37.17Q18.56-37.06 18.27-37.17L18.27-37.17Q17.88-37.51 17.59-37.28L17.59-37.28L17.03-37.00Q16.91-36.89 16.80-36.75Q16.68-36.60 16.57-36.55L16.57-36.55Q16.23-36.38 15.92-36.23Q15.61-36.09 15.32-35.98L15.32-35.98L15.32-35.87Q15.32-35.64 15.49-35.47L15.49-35.47Q15.66-35.30 15.89-34.84L15.89-34.84Q16.06-34.22 15.95-33.43L15.95-33.43Q15.95-33.14 15.72-33.14L15.72-33.14Q15.15-33.14 14.87-33.09L14.87-33.09L13.28-32.91Q12.43-32.69 12.14-32.63L12.14-32.63Q11.97-32.63 11.63-32.57Q11.29-32.52 11.07-32.46L11.07-32.46L9.42-32.06Q8.97-31.89 8.51-31.89L8.51-31.89L8.40-31.89Q8.17-31.89 7.92-31.69Q7.66-31.50 7.49-31.44L7.49-31.44Q7.43-31.44 7.46-31.41Q7.49-31.38 7.43-31.33L7.43-31.33Q7.43-31.21 7.38-31.16L7.38-31.16Q7.32-31.04 7.09-30.79Q6.87-30.53 6.92-30.25L6.92-30.25Q6.92-30.25 6.92-30.22Q6.92-30.19 6.87-30.19L6.87-30.19L6.64-29.85Q6.47-29.62 6.24-29.17L6.24-29.17Q6.13-29.06 6.19-28.89L6.19-28.89Q6.19-28.38 6.70-28.32L6.70-28.32Q6.81-28.32 6.98-28.29Q7.15-28.26 7.38-28.15L7.38-28.15Q7.77-28.03 7.66-27.81L7.66-27.81Q7.49-27.41 7.83-27.41L7.83-27.41Q8.29-27.24 8.63-26.79Q8.97-26.33 9.02-26.22L9.02-26.22Q9.31-25.76 9.87-25.31L9.87-25.31Q9.93-25.25 9.99-25.31Q10.04-25.37 10.16-25.37L10.16-25.37L10.44-25.54L10.73-25.54Q11.12-25.54 11.35-25.76L11.35-25.76L11.52-25.76L11.75-25.76Q12.37-25.76 12.60-26.33L12.60-26.33Q12.71-26.79 13.34-26.79L13.34-26.79L15.32-26.90Q15.55-26.90 16.12-27.01L16.12-27.01Q16.23-26.62 16.23-25.82L16.23-25.82Q16.23-25.08 16.17-24.69L16.17-24.69Q16.17-24.69 16.00-24.52L16.00-24.52Q15.38-24.46 14.02-24.23L14.02-24.23L11.07-23.72L8.68-23.15L6.19-22.64L5.96-22.53L5.45-21.96Q5.05-21.57 5.05-21.57L5.05-21.57L5.50-21.28Q5.67-21.00 5.96-20.83L5.96-20.83Q5.85-20.60 5.99-20.54Q6.13-20.49 6.19-20.43L6.19-20.43Q6.24-20.43 6.47-20.32L6.47-20.32Q7.04-19.86 7.32-19.69L7.32-19.69Q7.43-19.58 7.72-19.58L7.72-19.58Q8.17-19.58 8.29-19.86L8.29-19.86Q8.46-20.09 8.85-20.20L8.85-20.20L9.25-20.32Q9.59-20.37 10.50-20.63Q11.41-20.88 12.20-20.88L12.20-20.88Q13.68-20.77 14.41-20.77L14.41-20.77Q15.21-20.77 16.57-21.00L16.57-21.00Q17.08-21.11 17.31-21.00L17.31-21.00Q17.71-20.83 17.93-21.00L17.93-21.00Q18.39-21.34 19.47-21.34L19.47-21.34L22.19-21.51L23.15-21.57Q25.14-21.45 26.28-21.85L26.28-21.85Q26.39-21.91 26.98-22.10Q27.58-22.30 27.98-22.76L27.98-22.76L28.26-23.10Q28.94-23.61 29.00-23.66L29.00-23.66Q29.17-23.84 29.11-24.01L29.11-24.01Q29.11-24.18 29.00-24.52L29.00-24.52Q28.94-24.86 28.72-25.25L28.72-25.25Q28.60-25.54 28.49-25.54L28.49-25.54Q28.09-25.54 28.03-25.42L28.03-25.42Q27.64-24.97 26.96-25.14L26.96-25.14ZM41.20-17.08Q41.14-16.91 41.09-16.83Q41.03-16.74 40.97-16.68L40.97-16.68Q40.69-16.12 40.52-15.95L40.52-15.95Q40.35-15.78 40.09-15.58Q39.84-15.38 39.55-15.04L39.55-15.04Q39.50-14.98 39.21-14.70Q38.93-14.41 38.87-14.02L38.87-14.02Q38.87-14.02 38.70-13.90L38.70-13.90Q38.48-13.79 38.36-13.68L38.36-13.68Q38.36-13.68 37.45-12.77L37.45-12.77L36.66-11.92Q36.43-11.63 36.26-11.58Q36.09-11.52 35.81-11.75L35.81-11.75L35.47-11.92Q34.05-12.49 33.82-12.60L33.82-12.60Q33.43-12.83 32.97-13.05Q32.52-13.28 32.01-13.62L32.01-13.62Q31.89-13.68 31.58-13.76Q31.27-13.85 31.16-14.07L31.16-14.07Q31.10-14.19 30.96-14.19Q30.82-14.19 30.76-14.07L30.76-14.07L30.59-13.85L29.85-13.17Q29.74-12.94 29.79-12.71L29.79-12.71Q29.91-12.43 30.42-11.24L30.42-11.24L30.70-10.73Q31.04-10.21 31.61-9.65L31.61-9.65Q31.72-9.42 31.95-9.42L31.95-9.42Q32.46-9.31 32.97-8.68L32.97-8.68Q33.03-8.63 33.03-8.54Q33.03-8.46 32.97-8.40L32.97-8.40L32.46-7.95L31.50-7.21Q31.16-6.92 30.62-6.41Q30.08-5.90 29.62-5.67L29.62-5.67Q29.28-5.56 29.17-5.39L29.17-5.39Q29.11-5.16 28.83-4.82Q28.55-4.48 28.49-4.14L28.49-4.14Q28.49-3.97 28.35-3.69Q28.20-3.41 28.15-3.18L28.15-3.18L28.09-2.89Q28.09-2.50 28.38-2.30Q28.66-2.10 29.00-2.10L29.00-2.10L29.11-2.10Q29.40-2.10 29.85-2.55L29.85-2.55Q30.59-3.29 30.59-3.29L30.59-3.29Q30.87-3.58 31.44-4.03L31.44-4.03Q32.74-5.33 32.74-5.33L32.74-5.33Q32.69-5.28 34.33-6.75L34.33-6.75Q34.73-7.15 34.79-7.15L34.79-7.15Q34.90-7.15 35.36-6.75L35.36-6.75L38.02-4.60Q39.33-3.52 40.46-2.72L40.46-2.72Q41.31-2.10 42.00-1.53L42.00-1.53L43.92-0.34Q44.32-0.11 44.89 0.14Q45.46 0.40 45.74 0.51L45.74 0.51Q45.68 0.51 46.25 0.62L46.25 0.62Q46.42 0.68 46.62 0.77Q46.82 0.85 46.99 0.91L46.99 0.91L49.94 1.48Q50.39 1.59 50.68 1.59L50.68 1.59Q51.08 1.59 51.98 1.48L51.98 1.48Q52.27 1.42 52.47 1.16Q52.66 0.91 52.72 0.85L52.72 0.85L53.12 0.06Q53.17-0.06 53.34-0.17Q53.52-0.28 53.52-0.40L53.52-0.40Q53.57-0.79 53.80-0.99Q54.03-1.19 54.54-1.53L54.54-1.53L55.27-2.21L54.65-2.95Q54.08-3.52 54.08-3.52L54.08-3.52Q53.23-4.03 53.23-4.03L53.23-4.03Q52.83-4.14 52.89-4.54L52.89-4.54Q52.89-4.60 52.89-4.63Q52.89-4.65 52.83-4.65L52.83-4.65Q52.66-4.77 52.35-4.99Q52.04-5.22 51.70-5.22L51.70-5.22L50.56-5.56L48.69-6.36Q48.35-6.47 48.01-6.55Q47.67-6.64 47.33-6.75L47.33-6.75Q44.32-8.23 43.98-8.46L43.98-8.46Q43.36-8.74 43.02-9.19L43.02-9.19Q42.90-9.31 42.70-9.51Q42.51-9.70 42.31-9.79Q42.11-9.87 41.82-9.82L41.82-9.82L41.71-9.82Q41.09-9.99 40.35-10.39Q39.61-10.78 39.10-11.01L39.10-11.01Q39.61-11.52 39.61-11.52L39.61-11.52Q39.61-11.52 40.97-12.71L40.97-12.71L41.43-13.05Q41.65-13.17 42.02-13.59Q42.39-14.02 42.68-14.13L42.68-14.13Q42.96-14.30 43.19-14.56Q43.41-14.81 43.70-15.04L43.70-15.04Q44.38-15.72 45.23-16.40L45.23-16.40L45.85-16.91Q46.14-17.03 46.48-17.37L46.48-17.37L47.39-17.82Q47.61-17.88 47.84-18.13Q48.07-18.39 48.07-18.67L48.07-18.67Q48.07-18.84 47.95-19.01Q47.84-19.18 47.67-19.24L47.67-19.24Q47.56-19.30 47.30-19.41Q47.05-19.52 46.76-19.52L46.76-19.52Q46.19-19.58 45.80-20.09L45.80-20.09Q45.51-20.37 45.12-20.15L45.12-20.15Q44.89-19.92 44.78-19.92L44.78-19.92L42.90-19.69L41.09-19.35L38.53-18.84L37.97-18.84Q38.08-19.75 38.19-20.37L38.19-20.37Q38.25-20.83 38.48-21.45L38.48-21.45Q38.53-21.68 38.59-22.05Q38.65-22.42 38.82-22.87L38.82-22.87Q39.04-23.55 39.10-24.01L39.10-24.01Q39.21-25.08 40.18-24.91L40.18-24.91Q40.92-24.74 42.51-24.63L42.51-24.63L44.21-24.63Q44.55-24.69 45.06-24.69L45.06-24.69L46.65-24.69Q47.22-24.69 47.44-24.91L47.44-24.91Q47.61-25.08 47.78-25.17Q47.95-25.25 48.07-25.37L48.07-25.37Q48.35-25.65 48.35-25.88L48.35-25.88Q48.46-26.56 48.46-26.90L48.46-26.90Q48.46-27.07 48.38-27.30Q48.29-27.52 48.18-27.58L48.18-27.58Q47.39-28.03 46.93-28.20L46.93-28.20Q46.59-28.38 46.11-28.38Q45.63-28.38 45.34-28.38L45.34-28.38L45.00-28.38Q44.44-28.38 43.98-28.15L43.98-28.15L40.80-27.18Q40.41-27.13 39.16-26.73L39.16-26.73Q38.93-26.73 38.82-26.90L38.82-26.90L38.14-27.69Q37.85-27.92 37.63-28.01Q37.40-28.09 37.23-28.20L37.23-28.20Q37.11-28.32 36.77-28.32L36.77-28.32Q36.43-28.32 36.32-28.15L36.32-28.15Q36.26-27.98 35.92-27.98L35.92-27.98Q35.70-27.86 35.81-27.69L35.81-27.69Q35.98-27.18 35.98-26.50Q35.98-25.82 36.04-25.37L36.04-25.37Q36.04-24.97 35.95-24.60Q35.87-24.23 35.87-23.84L35.87-23.84Q35.81-23.10 35.81-21.51L35.81-21.51Q35.81-20.26 36.09-19.24L36.09-19.24L36.21-18.78Q36.21-18.33 35.58-17.93L35.58-17.93Q35.07-17.76 35.36-17.31L35.36-17.31Q35.64-16.97 35.89-16.71Q36.15-16.46 36.32-16.23L36.32-16.23Q36.49-16.06 36.72-16.06L36.72-16.06Q37.45-16.06 37.74-16.51L37.74-16.51L38.02-16.63L40.52-17.08Q40.75-17.14 40.92-17.11Q41.09-17.08 41.20-17.08L41.20-17.08ZM8.12-9.25Q8.12-9.14 8.09-9.02Q8.06-8.91 8.12-8.80L8.12-8.80Q8.12-8.51 8.17-8.40L8.17-8.40L8.91-7.60Q8.97-7.55 8.97-7.32L8.97-7.32Q8.97-7.21 8.94-7.04Q8.91-6.87 8.97-6.75L8.97-6.75Q9.14-6.47 9.31-6.24Q9.48-6.02 9.59-5.85L9.59-5.85L9.93-5.45Q10.44-4.82 11.24-4.99L11.24-4.99Q11.46-5.05 11.69-5.28Q11.92-5.50 12.09-5.62L12.09-5.62Q12.31-5.85 12.37-5.85L12.37-5.85Q13.17-6.13 13.96-6.19L13.96-6.19Q14.70-6.30 15.52-6.58Q16.34-6.87 16.57-6.92L16.57-6.92L17.71-7.26Q17.99-7.32 17.99-7.04L17.99-7.04L17.82-5.90Q17.82-5.73 17.76-5.45Q17.71-5.16 17.65-4.99L17.65-4.99Q17.48-4.65 17.28-4.37Q17.08-4.09 16.97-3.86L16.97-3.86Q16.97-3.86 16.29-3.18L16.29-3.18Q15.72-2.50 15.27-2.33L15.27-2.33Q15.21-2.33 15.10-2.27Q14.98-2.21 14.93-2.16L14.93-2.16Q14.70-1.93 14.30-2.04L14.30-2.04L13.68-2.10Q13.51-2.10 13.51-2.04L13.51-2.04L12.49-1.08Q12.37-0.96 12.12-0.71Q11.86-0.45 11.58-0.34L11.58-0.34Q11.12-0.23 11.12 0.11L11.12 0.11L11.01 0.51L10.73 1.02Q10.67 1.08 10.56 1.25Q10.44 1.42 10.56 1.65L10.56 1.65Q10.67 1.76 10.56 1.82L10.56 1.82L10.50 1.99Q10.50 2.16 10.73 2.38L10.73 2.38Q11.24 2.78 11.35 3.06L11.35 3.06Q11.69 3.69 12.77 3.92L12.77 3.92L13.17 4.09Q13.34 4.14 13.51 4.26Q13.68 4.37 13.90 4.43L13.90 4.43Q14.41 4.48 15.01 4.28Q15.61 4.09 15.83 4.03L15.83 4.03Q16.17 3.92 17.82 3.35L17.82 3.35Q17.93 3.35 18.05 3.23L18.05 3.23Q18.22 3.18 18.44 3.04Q18.67 2.89 18.78 2.89L18.78 2.89L18.90 2.89Q19.30 2.89 19.75 2.55L19.75 2.55L20.94 1.70Q20.94 1.65 21.05 1.65L21.05 1.65Q21.11 1.59 21.20 1.59Q21.28 1.59 21.34 1.53L21.34 1.53L21.79 1.14L22.59 0.23L23.10-0.85Q23.49-2.21 23.55-2.67L23.55-2.67Q23.61-3.01 23.61-3.69L23.61-3.69Q23.61-4.65 23.55-5.16L23.55-5.16L23.49-6.64Q23.49-6.81 23.44-6.87L23.44-6.87Q23.38-7.04 23.21-7.66Q23.04-8.29 23.15-8.91L23.15-8.91L23.10-9.02Q22.98-9.19 22.98-9.48L22.98-9.48L23.04-10.16L23.15-11.52Q23.15-11.92 22.76-11.97L22.76-11.97Q22.47-12.09 22.02-12.43L22.02-12.43Q21.96-12.49 21.96-12.57Q21.96-12.66 22.02-12.71L22.02-12.71Q22.47-13.51 22.59-13.62L22.59-13.62L23.55-15.32Q23.66-15.44 23.95-15.92Q24.23-16.40 24.74-16.63L24.74-16.63Q25.08-16.74 25.25-17.03L25.25-17.03Q25.31-17.08 25.31-17.31L25.31-17.31Q25.31-17.54 25.17-17.79Q25.03-18.05 24.80-18.10L24.80-18.10Q24.52-18.16 23.66-18.61L23.66-18.61L23.44-18.67L22.59-18.50Q21.68-18.39 21.17-18.27L21.17-18.27L19.98-18.10L17.25-17.76Q16.91-17.76 16.85-17.48L16.85-17.48Q16.85-17.08 16.40-16.97L16.40-16.97Q16.34-16.97 16.17-16.80L16.17-16.80Q16.63-16.46 17.08-16.46L17.08-16.46Q17.88-16.51 19.52-16.51L19.52-16.51L20.26-16.63Q20.71-16.74 21.00-16.74L21.00-16.74Q21.28-16.74 21.45-16.63L21.45-16.63Q21.45-16.17 21.34-15.95L21.34-15.95Q21.17-15.49 21.03-15.15Q20.88-14.81 20.77-14.53L20.77-14.53L20.60-13.96Q20.54-13.85 20.46-13.59Q20.37-13.34 20.20-13.28L20.20-13.28Q20.03-13.17 19.52-13.28L19.52-13.28L18.16-13.68L16.80-14.13Q16.68-14.13 16.63-14.19Q16.57-14.24 16.51-14.30L16.51-14.30L15.38-14.81Q14.93-15.04 14.81-14.81L14.81-14.81Q14.58-14.41 14.02-14.24L14.02-14.24Q14.64-13.34 15.04-13.17L15.04-13.17L16.91-12.31Q17.48-11.97 17.82-11.86L17.82-11.86Q18.33-11.63 18.33-11.07L18.33-11.07L18.33-10.33Q18.39-10.10 18.16-10.10L18.16-10.10L17.20-9.93L14.81-9.53L13.45-9.42Q13.05-9.42 12.37-9.31L12.37-9.31L11.07-9.25L10.39-9.25Q9.82-9.25 9.59-9.42L9.59-9.42Q9.53-9.42 9.48-9.45Q9.42-9.48 9.36-9.42L9.36-9.42L8.12-9.25ZM2.21-7.66Q2.21-7.95 2.38-8.00L2.38-8.00L3.06-8.46Q3.46-8.80 3.97-9.25Q4.48-9.70 5.11-10.21L5.11-10.21L6.75-11.46L7.04-11.69L8.23-12.77Q9.02-13.56 9.36-14.02L9.36-14.02L10.44-15.15L11.35-16.40Q11.63-16.97 11.63-17.20L11.63-17.20Q11.63-17.37 11.41-17.59L11.41-17.59L10.61-17.25L10.04-16.91L8.23-15.55Q7.60-15.04 6.36-14.13L6.36-14.13Q5.90-13.79 4.99-13.00L4.99-13.00L3.97-12.20L2.21-10.67L2.21-10.84L1.48-9.99Q1.48-9.93 1.45-9.87Q1.42-9.82 1.48-9.76L1.48-9.76L1.48-9.65Q1.48-9.42 1.39-9.17Q1.31-8.91 1.36-8.68L1.36-8.68Q1.42-8.51 1.39-8.29Q1.36-8.06 1.36-7.95L1.36-7.95Q1.59-7.83 1.65-7.83L1.65-7.83L2.21-7.66Z" transform="translate(0 227) " fill="#c69e66" stroke="#c69e66" stroke-width="0.095" data-glyph-w="56.75" data-glyph-h="68.10000000000001" data-glyph-ascender="56.75" data-glyph-descender="-11.35"></path></g></svg></g>
        </g><g id="shape_dWQN3LLhpy" class="brand_number"  ref="shape_dWQN3LLhpy" key="shape_dWQN3LLhpy" transform="translate(316.57713120251253,77.71362753642) rotate(0,93.16915008444201,203.441725724124) scale(1,1)" style="cursor:move;display:inline;opacity:1;" filter="">
            <g style="display:inline"><svg xmlns="http://www.w3.org/2000/svg" version="1.1" xmlns:xlink="http://www.w3.org/1999/xlink" width="281.84000000000003" height="406.68" viewBox="0 0 281.84000000000003 406.68" preserveAspectRatio="none" data-parent="shape_dWQN3LLhpy"><rect fill="rgba(0,0,0,0)" width="57" height="67" x="56.21" y="169.84"></rect><g data-width="56.21" transform="translate(56.605000000000004, 0)"><path d="M25.18-15.12Q25.29-14.78 25.41-14.67L25.41-14.67Q25.69-14.22 25.97-13.91Q26.25-13.60 26.47-13.32L26.47-13.32Q26.92-12.65 27.54-12.59L27.54-12.59Q27.82-12.59 27.99-12.68Q28.16-12.76 28.33-12.98L28.33-12.98Q28.39-13.15 28.72-13.38L28.72-13.38Q28.95-13.49 29.12-13.49L29.12-13.49Q29.29-13.55 29.54-13.60Q29.79-13.66 30.07-13.66L30.07-13.66Q30.86-13.66 30.86-13.27L30.86-13.27Q30.86-13.04 30.69-12.70L30.69-12.70Q30.24-11.69 29.68-10.90L29.68-10.90Q29.57-10.74 29.43-10.34Q29.29-9.95 28.95-9.78L28.95-9.78Q28.78-9.56 28.61-9.27Q28.44-8.99 28.22-8.71L28.22-8.71Q28.05-8.49 27.85-8.26Q27.66-8.04 27.49-7.81L27.49-7.81Q27.32-7.59 27.04-7.76L27.04-7.76L26.53-8.21L25.46-8.88Q25.13-9.11 24.70-9.44Q24.28-9.78 23.72-10.17L23.72-10.17Q22.60-10.85 21.58-11.30L21.58-11.30Q21.25-11.47 20.46-11.58L20.46-11.58Q20.40-11.64 20.29-11.58Q20.18-11.52 20.12-11.52L20.12-11.52L20.29-11.13L20.40-10.90Q20.35-10.85 20.18-10.85L20.18-10.85L19.79-10.74Q19.73-10.74 19.73-10.68Q19.73-10.62 19.73-10.57L19.73-10.57Q19.95-10.51 19.98-10.26Q20.01-10.01 20.12-9.89L20.12-9.89Q20.29-9.72 20.40-9.27L20.40-9.27Q20.46-8.04 21.47-7.14L21.47-7.14Q22.65-5.96 23.66-4.38L23.66-4.38Q23.83-4.16 23.61-4.05L23.61-4.05L22.09-2.64L21.08-1.69Q19.56-0.51 19.56-0.51L19.56-0.51L16.92 1.35Q16.53 1.57 15.74 1.97Q14.95 2.36 14.50 2.92L14.50 2.92Q14.16 3.32 14.39 3.71L14.39 3.71Q14.45 3.82 14.67 4.33L14.67 4.33Q14.73 4.44 14.90 4.75Q15.06 5.06 15.29 5.23L15.29 5.23Q15.57 5.45 15.91 5.45L15.91 5.45Q16.47 5.45 16.86 5.12L16.86 5.12L17.09 5.00L18.04 4.55Q18.66 4.33 19.22 3.88L19.22 3.88Q19.45 3.77 19.98 3.51Q20.52 3.26 20.85 2.92L20.85 2.92Q20.85 2.87 20.97 2.87L20.97 2.87L21.36 2.70L22.09 2.19L23.89 0.90L24.79 0.11Q25.97-0.90 25.91-0.84L25.91-0.84Q26.19-1.01 26.31-0.90L26.31-0.90Q26.64-0.73 26.70-0.67L26.70-0.67L28.55 0.90L29.29 1.41Q31.53 3.09 32.66 3.88L32.66 3.88Q33.11 4.16 34.85 5.12L34.85 5.12Q36.09 5.79 36.76 6.07L36.76 6.07Q38.11 6.63 39.57 7.08L39.57 7.08Q39.68 7.14 40.16 7.31Q40.64 7.48 41.09 7.31L41.09 7.31Q41.43 7.19 41.54 7.25L41.54 7.25Q41.76 7.36 42.10 7.14L42.10 7.14Q42.16 7.08 42.33 6.97Q42.49 6.86 42.66 6.91L42.66 6.91L42.72 6.91Q42.83 6.69 43.00 6.69Q43.17 6.69 43.23 6.69L43.23 6.69Q43.56 6.69 43.73 6.63L43.73 6.63Q44.18 6.35 44.74 6.35L44.74 6.35Q45.02 6.35 45.47 6.46L45.47 6.46Q45.70 6.58 46.20 6.58L46.20 6.58Q46.65 6.58 46.88 6.52L46.88 6.52Q46.99 6.52 47.16 6.49Q47.33 6.46 47.55 6.35L47.55 6.35Q47.67 6.24 47.81 6.01Q47.95 5.79 48.23 5.79L48.23 5.79L48.28 5.73L48.57 5.12Q48.73 4.61 49.24 4.50L49.24 4.50Q49.63 4.38 49.91 3.91Q50.20 3.43 50.14 3.04L50.14 3.04Q49.97 2.64 50.36 2.47L50.36 2.47L50.20 2.14Q50.20 2.08 50.17 2.02Q50.14 1.97 50.20 1.97L50.20 1.97L50.70 1.24Q50.81 1.12 50.81 0.96L50.81 0.96Q50.93 0.51 51.04 0.34L51.04 0.34Q51.21 0.11 51.21-0.39L51.21-0.39L51.21-0.45Q51.21-0.84 50.93-0.98Q50.65-1.12 50.36-0.90L50.36-0.90Q50.08-0.67 49.63-0.11L49.63-0.11Q49.02 0.51 48.62 0.51L48.62 0.51Q48.06 0.51 47.05 0.17L47.05 0.17L45.31-0.34L42.55-1.12Q41.93-1.29 41.45-1.49Q40.98-1.69 40.58-1.80L40.58-1.80L37.38-2.87L34.85-3.82L31.98-5.12L30.47-6.01L31.48-7.42L32.66-9.05Q32.88-9.44 32.97-9.75Q33.05-10.06 33.16-10.29L33.16-10.29Q33.22-10.46 33.33-10.68Q33.44-10.90 33.50-11.24L33.50-11.24L34.12-14.56L34.18-14.90Q34.18-15.40 33.73-15.74L33.73-15.74Q32.49-16.92 30.75-16.64L30.75-16.64L29.29-16.47L29.12-19.34Q29.12-19.62 29.14-19.98Q29.17-20.35 29.12-20.85L29.12-20.85L29.06-22.32Q29.06-22.82 29.57-22.71L29.57-22.71Q29.62-22.65 29.74-22.65L29.74-22.65Q30.13-22.71 30.66-22.65Q31.20-22.60 31.59-22.60L31.59-22.60Q32.10-22.60 32.38-22.65L32.38-22.65Q32.60-22.65 32.97-22.62Q33.33-22.60 33.56-22.71L33.56-22.71Q33.61-22.77 33.70-22.74Q33.78-22.71 33.84-22.65L33.84-22.65L34.63-22.60Q36.03-22.60 36.71-22.65L36.71-22.65L37.55-22.60L39.29-22.54Q39.80-22.54 40.81-22.65L40.81-22.65L42.21-22.71Q42.44-22.71 42.78-22.48L42.78-22.48L43.56-21.75Q43.68-21.64 43.84-21.70L43.84-21.70L43.96-21.92Q44.01-22.03 44.04-22.23Q44.07-22.43 44.24-22.48L44.24-22.48L44.63-22.77Q44.74-22.88 44.97-22.99L44.97-22.99Q45.14-23.10 45.31-23.19Q45.47-23.27 45.64-23.38L45.64-23.38Q45.81-23.55 46.06-23.75Q46.32-23.95 46.43-24.17Q46.54-24.40 46.49-24.68L46.49-24.68L46.54-24.79Q46.60-24.90 46.71-25.04Q46.82-25.18 46.88-25.41L46.88-25.41Q46.99-25.63 47.33-25.63L47.33-25.63Q47.50-25.63 47.95-25.74L47.95-25.74L48.40-25.80L48.79-25.91L49.41-26.14Q49.75-26.25 49.52-26.53L49.52-26.53Q49.35-26.87 49.41-26.92L49.41-26.92Q49.63-27.21 49.63-27.60L49.63-27.60Q49.63-27.94 49.58-28.11L49.58-28.11Q49.69-28.22 49.69-28.44L49.69-28.44Q49.69-28.50 49.61-28.64Q49.52-28.78 49.58-28.89L49.58-28.89Q49.80-29.57 50.20-29.85L50.20-29.85Q50.42-29.96 50.81-30.35L50.81-30.35Q50.14-30.63 50.14-31.48L50.14-31.48Q50.08-32.32 49.30-32.32L49.30-32.32L47.22-32.32Q46.37-32.32 44.46-32.21L44.46-32.21Q43.34-32.10 42.66-32.10L42.66-32.10L38.56-31.93L34.18-31.93Q33.11-31.98 30.97-31.98L30.97-31.98Q29.85-31.98 29.29-32.04L29.29-32.04Q29.17-32.04 29.09-32.10Q29.00-32.15 29.00-32.21L29.00-32.21L29.23-33.95Q29.23-34.23 29.26-34.65Q29.29-35.08 29.40-35.64L29.40-35.64Q29.57-36.20 29.62-36.37L29.62-36.37Q29.74-36.59 29.79-36.90Q29.85-37.21 29.74-37.32L29.74-37.32L28.78-38.56Q28.61-38.78 28.50-38.98Q28.39-39.18 28.27-39.35L28.27-39.35L28.05-39.63L27.71-39.97Q27.66-40.02 27.60-40.19Q27.54-40.36 27.43-40.41L27.43-40.41Q26.98-40.98 26.70-41.09L26.70-41.09Q26.47-41.20 26.14-41.31Q25.80-41.43 25.58-41.54L25.58-41.54L25.29-41.54Q25.13-41.54 25.01-41.34Q24.90-41.15 24.79-41.09L24.79-41.09L24.68-40.75Q24.45-40.36 24.84-40.13L24.84-40.13L24.84-39.97L24.84-38.50L24.84-37.83L24.79-35.86Q24.79-35.08 24.73-34.68L24.73-34.68L24.68-33.44L24.56-31.87L24.51-31.81L19.45-31.31L15.29-30.80L13.15-30.52L11.58-30.30L8.32-29.79L6.01-29.40Q5.34-29.40 5.00-29.79L5.00-29.79Q4.72-30.13 4.55-30.13L4.55-30.13Q4.44-30.13 4.10-29.96L4.10-29.96Q4.33-29.57 3.88-29.40L3.88-29.40Q3.77-29.34 3.74-29.20Q3.71-29.06 3.77-28.95L3.77-28.95Q3.88-28.78 3.88-28.64Q3.88-28.50 3.71-28.44L3.71-28.44Q3.54-28.33 3.43-28.16L3.43-28.16Q3.32-27.99 3.43-27.88L3.43-27.88Q3.49-27.77 3.57-27.71Q3.65-27.66 3.71-27.54L3.71-27.54Q4.05-27.09 4.05-26.87L4.05-26.87Q4.05-26.36 3.93-25.63Q3.82-24.90 3.88-24.40L3.88-24.40Q3.88-24.23 3.91-23.80Q3.93-23.38 4.22-23.10L4.22-23.10L4.33-22.88L4.67-22.43L5.34-21.81Q6.07-21.30 6.97-20.12L6.97-20.12Q7.25-19.79 7.59-19.90L7.59-19.90Q7.93-20.01 8.09-19.84L8.09-19.84Q8.21-19.73 8.49-19.73L8.49-19.73Q8.77-19.73 8.99-19.90L8.99-19.90Q9.27-20.07 9.86-20.40Q10.46-20.74 11.02-20.85L11.02-20.85L12.31-21.25L14.05-21.58L16.41-21.87L17.76-22.03Q17.87-22.03 18.02-22.12Q18.16-22.20 18.32-22.20L18.32-22.20L20.18-22.32L22.26-22.54Q22.65-22.60 23.50-22.60L23.50-22.60L24.73-22.60Q25.07-22.60 25.13-22.32L25.13-22.32L25.91-19.56L26.76-17.20Q26.92-16.86 27.09-16.61Q27.26-16.36 27.37-16.13L27.37-16.13L25.63-15.68Q25.58-15.68 25.58-15.63L25.58-15.63Q25.69-15.63 25.69-15.57L25.69-15.57L25.86-15.35L25.63-15.23L25.18-15.12Z" transform="translate(0 224.84) " fill="#c69e66" stroke="#c69e66" stroke-width="0.094" data-glyph-w="56.21" data-glyph-h="67.452" data-glyph-ascender="56.21" data-glyph-descender="-11.242"></path></g></svg></g>
        </g><g id="shape_j6xsPIN6Fv" class="brand_number"  ref="shape_j6xsPIN6Fv" key="shape_j6xsPIN6Fv" transform="translate(318.5130516370775,100.35020739364) rotate(0,109.01807979410799,237.07999999999998) scale(1,1)" style="cursor:move;display:inline;opacity:1;" filter="">
            <g style="display:inline"><svg xmlns="http://www.w3.org/2000/svg" version="1.1" xmlns:xlink="http://www.w3.org/1999/xlink" width="329.08" height="474.15999999999997" viewBox="0 0 329.08 474.15999999999997" preserveAspectRatio="none" data-parent="shape_j6xsPIN6Fv"><rect fill="rgba(0,0,0,0)" width="66" height="78" x="65.77" y="198.07999999999998"></rect><g data-width="65.77" transform="translate(65.88499999999999, 0)"><path d="M27.95-47.22Q27.95-46.96 28.02-46.83L28.02-46.83Q28.08-46.70 28.25-46.33Q28.41-45.97 28.41-45.71L28.41-45.71Q28.48-44.46 29.46-42.62L29.46-42.62Q29.60-42.29 29.56-42.19Q29.53-42.09 29.20-42.09L29.20-42.09L24.99-41.70Q23.74-41.57 21.24-41.17L21.24-41.17Q20.13-40.97 18.22-40.71L18.22-40.71Q17.69-40.58 16.51-40.45L16.51-40.45Q15.39-40.25 12.69-39.99L12.69-39.99Q11.71-39.86 10.98-39.82Q10.26-39.79 9.80-39.79L9.80-39.79Q9.67-39.79 9.47-39.99L9.47-39.99Q9.21-40.38 8.85-40.74Q8.48-41.11 8.02-41.24L8.02-41.24Q7.89-41.24 7.56-41.34Q7.23-41.44 6.91-41.30L6.91-41.30Q6.51-41.11 6.35-40.78Q6.18-40.45 6.45-40.05L6.45-40.05Q6.51-39.86 6.97-38.94L6.97-38.94Q7.04-38.80 7.04-38.54L7.04-38.54L7.04-38.15Q7.04-37.62 7.23-37.42L7.23-37.42Q7.30-37.36 7.27-37.26Q7.23-37.16 7.23-37.09L7.23-37.09Q7.10-36.83 7.14-36.70Q7.17-36.57 7.37-36.44L7.37-36.44Q7.70-36.31 7.76-36.11L7.76-36.11Q7.96-35.45 8.42-35.25L8.42-35.25Q8.48-35.25 8.55-35.19Q8.62-35.12 8.62-35.06L8.62-35.06Q8.55-34.86 8.65-34.73Q8.75-34.60 9.01-34.66L9.01-34.66L9.14-34.60Q9.27-34.53 9.50-34.27Q9.73-34.00 10.00-33.94Q10.26-33.87 10.59-33.94L10.59-33.94Q10.85-34.00 11.28-33.97Q11.71-33.94 12.04-34.00L12.04-34.00Q12.23-34.00 12.76-34.13L12.76-34.13L13.61-34.46L13.75-34.40L15.06-34.60Q15.32-34.60 15.59-34.73L15.59-34.73Q15.78-34.73 16.18-34.86L16.18-34.86Q16.90-34.86 17.23-34.92L17.23-34.92L19.47-35.38L22.30-35.78Q24.01-35.98 27.43-36.50L27.43-36.50L31.57-36.96Q32.75-37.09 33.35-37.09L33.35-37.09L36.04-37.29L38.21-37.55L41.90-37.75Q44.92-37.88 46.43-37.88L46.43-37.88Q46.57-37.88 48.34-37.69L48.34-37.69L49.20-37.62L50.58-37.62L53.80-37.75Q54.52-37.82 55.12-37.95Q55.71-38.08 56.10-38.15L56.10-38.15L56.50-38.28Q56.83-38.67 57.61-38.80L57.61-38.80Q57.68-38.80 58.01-38.87Q58.34-38.94 58.54-39.20L58.54-39.20Q58.86-39.59 59.92-39.86L59.92-39.86L59.98-39.86Q60.18-39.99 60.34-40.19Q60.51-40.38 60.51-40.51L60.51-40.51Q60.51-40.71 60.41-41.01Q60.31-41.30 60.38-41.44L60.38-41.44Q60.51-41.70 60.51-42.16L60.51-42.16Q60.51-42.68 60.38-42.88L60.38-42.88Q60.38-43.15 60.18-43.21L60.18-43.21Q59.06-43.61 58.27-43.74L58.27-43.74Q57.09-43.93 55.90-43.93L55.90-43.93Q53.60-43.93 52.48-43.87L52.48-43.87Q51.56-43.87 49.72-43.74L49.72-43.74Q47.42-43.74 46.30-43.67L46.30-43.67L40.71-43.21Q37.69-42.95 36.17-42.88L36.17-42.88L35.91-42.88Q35.71-42.88 35.65-42.98Q35.58-43.08 35.58-43.34L35.58-43.34L35.58-43.74Q35.58-44.00 35.91-43.93L35.91-43.93Q35.98-43.87 36.11-43.90Q36.24-43.93 36.37-43.93L36.37-43.93L35.52-44.99Q35.45-45.12 35.38-45.25Q35.32-45.38 35.19-45.51L35.19-45.51Q34.73-45.84 34.13-46.24Q33.54-46.63 32.75-47.16L32.75-47.16Q32.42-47.35 31.87-47.65Q31.31-47.95 30.98-48.28L30.98-48.28Q30.85-48.41 30.39-48.54L30.39-48.54L29.73-48.93L29.14-49.13Q29.00-49.20 28.74-49.20L28.74-49.20L28.48-49.26Q28.22-49.26 28.08-48.87L28.08-48.87Q28.08-48.54 28.22-47.88L28.22-47.88L28.28-47.22L28.28-47.09Q28.28-47.09 27.95-47.22L27.95-47.22ZM20.45-26.70L20.72-27.10L22.36-28.74L23.81-30.19Q24.99-31.37 24.99-31.37L24.99-31.37L26.83-33.08Q27.16-33.35 28.15-34.53L28.15-34.53Q28.35-34.66 28.25-34.86Q28.15-35.06 28.15-35.12L28.15-35.12Q27.95-35.32 27.75-35.25L27.75-35.25Q27.62-35.25 27.10-35.19Q26.57-35.12 26.18-34.79L26.18-34.79L23.68-33.08L22.16-31.83Q20.91-30.85 19.67-29.73L19.67-29.73Q19.40-29.53 19.24-29.30Q19.07-29.07 18.94-28.94L18.94-28.94L17.17-27.29Q17.03-27.23 16.71-26.93Q16.38-26.64 15.98-26.57L15.98-26.57Q15.52-26.57 15.36-26.18Q15.19-25.78 15.52-25.45L15.52-25.45Q15.65-25.32 15.78-25.06L15.78-25.06Q15.92-24.93 15.95-24.43Q15.98-23.94 16.31-23.74L16.31-23.74L16.31-23.68Q16.44-23.41 16.57-23.35L16.57-23.35Q16.84-23.09 16.87-22.92Q16.90-22.76 16.64-22.49L16.64-22.49Q16.44-22.30 16.64-22.16L16.64-22.16Q16.90-21.90 16.90-21.90L16.90-21.90Q17.10-21.64 17.26-21.61Q17.43-21.57 17.76-21.64L17.76-21.64L18.61-22.03Q18.88-22.10 19.17-22.16Q19.47-22.23 19.73-22.30L19.73-22.30Q19.99-22.36 20.22-22.46Q20.45-22.56 20.72-22.62L20.72-22.62Q23.09-23.28 24.27-23.55L24.27-23.55Q24.86-23.68 26.31-23.81L26.31-23.81Q26.44-23.81 26.60-23.74Q26.77-23.68 26.90-23.74L26.90-23.74Q29.00-23.87 29.99-24.01L29.99-24.01L33.87-24.40L39.59-25.39L41.70-25.65Q41.90-25.65 42.03-25.78L42.03-25.78Q42.36-26.24 43.15-26.37L43.15-26.37Q43.28-26.44 44.00-26.77L44.00-26.77Q44.07-26.77 44.20-26.90L44.20-26.90Q44.39-26.97 44.69-27.03Q44.99-27.10 45.38-27.29L45.38-27.29Q45.84-27.43 45.91-27.62L45.91-27.62Q45.97-28.02 46.33-28.25Q46.70-28.48 46.89-28.61L46.89-28.61Q47.22-28.87 47.26-28.97Q47.29-29.07 47.16-29.33L47.16-29.33L47.09-29.46L47.09-29.66Q47.09-29.99 46.70-30.65L46.70-30.65Q46.37-31.31 45.51-31.90L45.51-31.90Q44.33-32.88 42.68-33.67L42.68-33.67Q42.49-33.74 40.97-34.27L40.97-34.27Q40.65-34.33 39.92-34.33L39.92-34.33Q39.59-34.40 38.87-34.40L38.87-34.40Q38.21-34.27 38.02-34.13L38.02-34.13Q37.62-34.00 37.49-34.00L37.49-34.00L37.49-33.87Q37.95-33.54 38.02-33.54L38.02-33.54Q38.48-33.48 38.80-33.02L38.80-33.02Q39.59-32.10 39.92-31.64L39.92-31.64L39.99-31.50L39.59-31.24L41.30-29.66L40.78-29.60Q38.67-29.46 37.62-29.33L37.62-29.33Q36.77-29.27 35.06-29.00L35.06-29.00Q31.77-28.61 30.06-28.35L30.06-28.35Q28.22-28.15 24.53-27.62L24.53-27.62Q24.01-27.56 23.22-27.33Q22.43-27.10 21.90-26.97L21.90-26.97Q20.98-26.83 20.45-26.70L20.45-26.70ZM36.77-5.26L36.50-5.66Q36.37-5.79 36.31-5.79L36.31-5.79L35.45-6.05Q35.12-6.12 34.63-6.18Q34.13-6.25 33.48-6.25L33.48-6.25L29.86-6.31Q27.49-6.31 25.58-6.05L25.58-6.05Q25.32-5.92 25.32-6.25L25.32-6.25Q25.32-6.91 25.19-8.22L25.19-8.22Q25.19-8.29 25.16-8.52Q25.12-8.75 25.45-8.88L25.45-8.88Q25.98-9.01 26.83-9.24Q27.69-9.47 28.28-9.54L28.28-9.54Q29.33-9.73 30.12-9.80Q30.91-9.87 31.44-9.93L31.44-9.93Q33.02-10.06 33.81-10.06L33.81-10.06L34.07-10.19L34.86-10.46Q35.25-10.46 35.52-10.79L35.52-10.79Q35.58-10.85 35.71-11.02Q35.84-11.18 36.04-11.18L36.04-11.18L36.63-11.25Q37.23-11.38 37.23-11.84L37.23-11.84L37.23-11.90Q37.23-12.04 37.06-12.20Q36.90-12.36 36.70-12.43L36.70-12.43Q36.44-12.50 35.98-12.56Q35.52-12.63 34.86-12.63L34.86-12.63L34.33-12.63Q33.48-12.63 33.08-12.56L33.08-12.56Q32.16-12.56 30.32-12.43L30.32-12.43Q26.70-11.90 25.26-11.71L25.26-11.71L24.99-11.71Q24.66-11.71 24.73-12.23L24.73-12.23Q24.73-12.36 24.76-12.56Q24.80-12.76 24.73-13.02L24.73-13.02Q24.73-13.48 24.80-13.65Q24.86-13.81 25.26-13.94L25.26-13.94Q26.04-14.34 27.62-15.00L27.62-15.00Q29.73-15.78 32.42-16.11L32.42-16.11Q33.74-16.25 34.33-16.25L34.33-16.25Q36.04-16.25 37.29-15.65L37.29-15.65Q37.62-15.59 37.75-15.19L37.75-15.19L37.82-12.17Q37.82-11.18 37.75-10.72L37.75-10.72L37.69-9.21L37.69-7.89Q37.69-6.97 37.62-6.51L37.62-6.51Q37.62-5.92 37.55-5.29Q37.49-4.67 37.49-4.08L37.49-4.08L37.42-2.70Q37.29-1.12 37.29-0.26L37.29-0.26Q37.29 1.45 37.55 2.76L37.55 2.76Q37.69 3.62 38.08 5.46L38.08 5.46Q38.08 5.52 38.05 5.69Q38.02 5.85 38.08 5.92L38.08 5.92Q38.08 5.99 38.08 6.15Q38.08 6.31 38.34 6.45L38.34 6.45Q38.48 6.45 38.64 6.58Q38.80 6.71 38.87 6.77L38.87 6.77Q39.07 6.97 39.26 6.91L39.26 6.91Q39.46 6.84 39.73 6.97L39.73 6.97Q39.86 6.97 40.58 7.37L40.58 7.37L40.84 7.37Q41.17 7.37 41.34 7.23Q41.50 7.10 41.63 6.71L41.63 6.71Q41.76 6.31 41.76 5.52L41.76 5.52Q41.76 5.13 41.73 4.64Q41.70 4.14 41.76 3.49L41.76 3.49Q41.83 3.22 41.83 2.63L41.83 2.63Q41.83 2.04 41.90 1.55Q41.96 1.05 42.03 0.72L42.03 0.72Q42.29-0.59 42.29-1.32L42.29-1.32Q42.29-1.91 42.42-2.96L42.42-2.96Q42.55-3.88 42.55-4.41L42.55-4.41Q42.62-4.67 42.59-5.06Q42.55-5.46 42.55-5.66L42.55-5.66Q42.55-6.18 42.68-7.23L42.68-7.23Q42.82-8.81 42.82-9.73L42.82-9.73Q42.88-10.33 42.88-11.58L42.88-11.58Q42.88-12.10 43.01-13.29L43.01-13.29L43.01-14.01Q42.88-14.40 42.88-14.54L42.88-14.54Q42.95-14.80 42.95-15.32L42.95-15.32Q42.95-15.98 42.82-16.31L42.82-16.31Q42.49-17.03 42.09-17.36L42.09-17.36Q41.44-17.89 41.11-18.09L41.11-18.09Q40.32-18.61 39.86-18.81L39.86-18.81Q37.69-19.53 35.58-19.53L35.58-19.53Q33.61-19.53 30.98-19.20L30.98-19.20Q28.87-18.94 27.36-18.55L27.36-18.55Q25.45-18.09 22.03-16.38L22.03-16.38L21.70-16.25Q21.44-16.25 20.91-16.38L20.91-16.38L20.78-16.38Q20.59-16.38 20.32-16.11L20.32-16.11Q19.99-15.59 20.32-15.19L20.32-15.19Q20.45-15.06 20.78-14.83Q21.11-14.60 21.18-14.34L21.18-14.34Q21.18-14.27 21.24-14.27Q21.31-14.27 21.31-14.21L21.31-14.21Q21.70-14.01 21.97-13.75L21.97-13.75Q22.10-13.61 22.10-13.42L22.10-13.42Q21.97-12.36 21.84-11.97L21.84-11.97Q21.84-11.77 21.64-11.64L21.64-11.64Q21.18-11.44 21.38-11.05L21.38-11.05Q21.70-10.46 21.57-9.21L21.57-9.21L21.57-9.14Q21.51-8.62 21.51-7.63L21.51-7.63Q21.38-5.06 21.11-3.81L21.11-3.81Q20.98-3.09 20.65-1.12L20.65-1.12Q20.52 0.07 20.39 0.72L20.39 0.72Q20.39 0.92 20.26 1.05L20.26 1.05Q20.13 1.32 19.90 1.51Q19.67 1.71 19.53 1.97L19.53 1.97Q18.61 3.68 18.09 4.54L18.09 4.54Q17.96 4.93 17.63 4.93L17.63 4.93Q16.90 5.13 16.25 5.13L16.25 5.13Q15.52 5.13 15.00 4.87L15.00 4.87Q15.00 5.13 14.86 5.66L14.86 5.66L14.93 5.85L15.19 6.58Q15.26 6.84 15.26 6.97Q15.26 7.10 15.06 7.30L15.06 7.30Q15.59 7.96 15.59 8.35L15.59 8.35Q15.59 8.68 15.46 8.88L15.46 8.88Q15.19 8.88 15.13 8.81L15.13 8.81Q14.93 9.08 14.96 9.17Q15.00 9.27 15.32 9.41L15.32 9.41Q15.52 9.54 15.69 9.57Q15.85 9.60 15.92 9.60L15.92 9.60Q16.05 9.67 16.25 9.67Q16.44 9.67 16.51 9.73L16.51 9.73Q16.77 10.00 17.20 10.03Q17.63 10.06 17.89 10.13L17.89 10.13Q18.15 10.19 18.61 10.16Q19.07 10.13 19.40 10.19L19.40 10.19Q20.06 10.19 20.45 9.67L20.45 9.67Q20.59 9.54 20.95 9.24Q21.31 8.94 21.44 8.55L21.44 8.55Q21.57 8.35 21.84 8.16L21.84 8.16L22.82 7.56Q23.15 7.37 23.22 7.10L23.22 7.10Q23.35 6.77 23.61 7.04L23.61 7.04Q24.01 7.30 24.27 7.23L24.27 7.23Q24.33 7.17 24.53 6.64L24.53 6.64L24.53 6.45L24.53 5.59L24.53 4.47L24.47 2.04Q24.47 1.58 24.53 1.25Q24.60 0.92 24.66 0.66L24.66 0.66Q24.66 0.33 24.80-0.46L24.80-0.46L25.06-2.24Q25.19-2.89 25.65-2.89L25.65-2.89Q27.23-3.16 27.95-3.16L27.95-3.16L32.69-3.29Q32.82-3.29 33.02-3.26Q33.21-3.22 33.35-3.29L33.35-3.29Q34.00-3.62 34.46-3.62L34.46-3.62Q34.86-3.62 34.86-3.95L34.86-3.95Q34.86-4.41 35.19-4.47L35.19-4.47Q35.52-4.47 35.71-4.54L35.71-4.54Q36.04-4.60 36.37-4.77Q36.70-4.93 36.77-5.26L36.77-5.26Z" transform="translate(0 263.08) " fill="#c69e66" stroke="#c69e66" stroke-width="0.11" data-glyph-w="65.77" data-glyph-h="78.92399999999999" data-glyph-ascender="65.77" data-glyph-descender="-13.154"></path></g></svg></g>
        </g><g id="shape_9fnTREfBm3" class="brand_slogan"  ref="shape_9fnTREfBm3" key="shape_9fnTREfBm3" transform="translate(355.75798111807,349.49298362652996) rotate(0,48.522561552765,31.675451812163203) scale(1,1)" style="cursor:move;display:inline;opacity:1;" filter="">
            <g style="display:inline"><svg xmlns="http://www.w3.org/2000/svg" version="1.1" xmlns:xlink="http://www.w3.org/1999/xlink" width="108.28" height="63.074200000000005" viewBox="0 0 108.28 63.074200000000005" preserveAspectRatio="none" data-parent="shape_9fnTREfBm3"><rect fill="rgba(0,0,0,0)" width="74" height="10" x="8.57" y="26.537100000000002"></rect><g data-width="73.60773000000002" transform="translate(8.57, 0)"><path d="M2.37 0.08Q1.36 0.08 0.49-0.21L0.49-0.21L0.49-0.99Q0.93-0.85 1.43-0.77Q1.94-0.69 2.38-0.69L2.38-0.69Q3.21-0.69 3.59-0.96Q3.98-1.22 3.98-1.74L3.98-1.74Q3.98-2.02 3.85-2.21Q3.73-2.40 3.45-2.52Q3.17-2.64 2.69-2.74L2.69-2.74L2.26-2.82Q1.27-3.02 0.82-3.45Q0.37-3.87 0.37-4.59L0.37-4.59Q0.37-5.46 1.03-5.94Q1.70-6.42 2.98-6.42L2.98-6.42Q3.88-6.42 4.64-6.20L4.64-6.20L4.64-5.41Q4.27-5.52 3.84-5.59Q3.42-5.65 3.00-5.65L3.00-5.65Q1.34-5.65 1.34-4.63L1.34-4.63Q1.34-4.34 1.45-4.16Q1.56-3.97 1.81-3.85Q2.07-3.72 2.51-3.63L2.51-3.63L2.94-3.55Q3.66-3.41 4.10-3.18Q4.54-2.94 4.74-2.60Q4.94-2.25 4.94-1.78L4.94-1.78Q4.94-1.20 4.64-0.78Q4.34-0.36 3.76-0.14Q3.18 0.08 2.37 0.08L2.37 0.08Z" transform="translate(0 34.5371) " fill="#c69e66" stroke="#c69e66" stroke-width="0.014" data-glyph-w="5.317685000000001" data-glyph-h="10.712500000000002" data-glyph-ascender="8.827100000000002" data-glyph-descender="-1.8854000000000002"></path><path d="M1.75 0L0.78 0L0.78-6.34L1.75-6.34L1.75-3.67L5.36-3.67L5.36-6.34L6.33-6.34L6.33 0L5.36 0L5.36-2.83L1.75-2.83L1.75 0Z" transform="translate(5.317685000000001 34.5371) " fill="#c69e66" stroke="#c69e66" stroke-width="0.014" data-glyph-w="7.117385000000001" data-glyph-h="10.712500000000002" data-glyph-ascender="8.827100000000002" data-glyph-descender="-1.8854000000000002"></path><path d="M6.56 0L5.58 0L4.83-1.94L1.87-1.94L1.11 0L0.15 0L2.67-6.34L4.04-6.34L6.56 0ZM3.35-5.74L2.16-2.70L4.53-2.70L3.35-5.74Z" transform="translate(12.435070000000003 34.5371) " fill="#c69e66" stroke="#c69e66" stroke-width="0.014" data-glyph-w="6.710310000000001" data-glyph-h="10.712500000000002" data-glyph-ascender="8.827100000000002" data-glyph-descender="-1.8854000000000002"></path><path d="M5.51-1.34L5.51-6.34L6.43-6.34L6.43 0L5.44 0L1.70-5.00L1.70 0L0.78 0L0.78-6.34L1.77-6.34L5.51-1.34Z" transform="translate(19.145380000000003 34.5371) " fill="#c69e66" stroke="#c69e66" stroke-width="0.014" data-glyph-w="7.211655000000001" data-glyph-h="10.712500000000002" data-glyph-ascender="8.827100000000002" data-glyph-descender="-1.8854000000000002"></path><path d="M5.38-5.81L1.60-0.78L5.43-0.78L5.43 0L0.32 0L0.32-0.53L4.10-5.56L0.38-5.56L0.38-6.34L5.38-6.34L5.38-5.81Z" transform="translate(26.357035000000003 34.5371) " fill="#c69e66" stroke="#c69e66" stroke-width="0.014" data-glyph-w="5.759040000000001" data-glyph-h="10.712500000000002" data-glyph-ascender="8.827100000000002" data-glyph-descender="-1.8854000000000002"></path><path d="M1.75 0L0.78 0L0.78-6.34L1.75-6.34L1.75-3.67L5.36-3.67L5.36-6.34L6.33-6.34L6.33 0L5.36 0L5.36-2.83L1.75-2.83L1.75 0Z" transform="translate(32.116075 34.5371) " fill="#c69e66" stroke="#c69e66" stroke-width="0.014" data-glyph-w="7.117385000000001" data-glyph-h="10.712500000000002" data-glyph-ascender="8.827100000000002" data-glyph-descender="-1.8854000000000002"></path><path d="M1.75 0L0.78 0L0.78-6.34L1.75-6.34L1.75 0Z" transform="translate(39.23346 34.5371) " fill="#c69e66" stroke="#c69e66" stroke-width="0.014" data-glyph-w="2.5367200000000003" data-glyph-h="10.712500000000002" data-glyph-ascender="8.827100000000002" data-glyph-descender="-1.8854000000000002"></path><path d="M0.60 1.49L-0.01 1.07Q0.41 0.56 0.60 0.01Q0.79-0.54 0.79-1.25L0.79-1.25L0.79-6.34L1.75-6.34L1.75-1.18Q1.73-0.40 1.47 0.23Q1.20 0.86 0.60 1.49L0.60 1.49Z" transform="translate(41.77018 34.5371) " fill="#c69e66" stroke="#c69e66" stroke-width="0.014" data-glyph-w="2.5367200000000003" data-glyph-h="10.712500000000002" data-glyph-ascender="8.827100000000002" data-glyph-descender="-1.8854000000000002"></path><path d="M1.75 0L0.78 0L0.78-6.34L1.75-6.34L1.75 0Z" transform="translate(44.306900000000006 34.5371) " fill="#c69e66" stroke="#c69e66" stroke-width="0.014" data-glyph-w="2.5367200000000003" data-glyph-h="10.712500000000002" data-glyph-ascender="8.827100000000002" data-glyph-descender="-1.8854000000000002"></path><path d="M6.56 0L5.58 0L4.83-1.94L1.87-1.94L1.11 0L0.15 0L2.67-6.34L4.04-6.34L6.56 0ZM3.35-5.74L2.16-2.70L4.53-2.70L3.35-5.74Z" transform="translate(46.84362000000001 34.5371) " fill="#c69e66" stroke="#c69e66" stroke-width="0.014" data-glyph-w="6.710310000000001" data-glyph-h="10.712500000000002" data-glyph-ascender="8.827100000000002" data-glyph-descender="-1.8854000000000002"></path><path d="M3.63 0.08Q2.68 0.08 1.97-0.28Q1.27-0.65 0.88-1.38Q0.50-2.10 0.50-3.17L0.50-3.17Q0.50-4.24 0.89-4.97Q1.28-5.69 1.98-6.06Q2.68-6.42 3.63-6.42L3.63-6.42Q4.59-6.42 5.30-6.06Q6.00-5.69 6.38-4.96Q6.77-4.23 6.77-3.17L6.77-3.17Q6.77-2.11 6.38-1.38Q5.99-0.65 5.29-0.28Q4.58 0.08 3.63 0.08L3.63 0.08ZM3.63-0.71Q4.65-0.71 5.21-1.31Q5.77-1.91 5.77-3.15L5.77-3.15Q5.77-4.41 5.21-5.02Q4.64-5.63 3.63-5.63L3.63-5.63Q2.63-5.63 2.06-5.03Q1.50-4.43 1.50-3.20L1.50-3.20Q1.50-1.92 2.06-1.32Q2.62-0.71 3.63-0.71L3.63-0.71Z" transform="translate(53.55393000000001 34.5371) " fill="#c69e66" stroke="#c69e66" stroke-width="0.014" data-glyph-w="7.267360000000001" data-glyph-h="10.712500000000002" data-glyph-ascender="8.827100000000002" data-glyph-descender="-1.8854000000000002"></path><path d="M4.90-6.34L5.90-6.34L3.40-2.78L3.40 0L2.43 0L2.43-2.77L-0.14-6.34L0.93-6.34L2.93-3.56L4.90-6.34Z" transform="translate(60.82129000000001 34.5371) " fill="#c69e66" stroke="#c69e66" stroke-width="0.014" data-glyph-w="5.810460000000001" data-glyph-h="10.712500000000002" data-glyph-ascender="8.827100000000002" data-glyph-descender="-1.8854000000000002"></path><path d="M3.50 0.08Q2.08 0.08 1.42-0.59Q0.75-1.26 0.75-2.64L0.75-2.64L0.75-6.34L1.72-6.34L1.72-2.55Q1.72-1.59 2.16-1.16Q2.59-0.72 3.50-0.72L3.50-0.72Q4.40-0.72 4.84-1.16Q5.27-1.59 5.27-2.55L5.27-2.55L5.27-6.34L6.22-6.34L6.22-2.64Q6.22-1.26 5.56-0.59Q4.90 0.08 3.50 0.08L3.50 0.08Z" transform="translate(66.63175000000001 34.5371) " fill="#c69e66" stroke="#c69e66" stroke-width="0.014" data-glyph-w="6.975980000000001" data-glyph-h="10.712500000000002" data-glyph-ascender="8.827100000000002" data-glyph-descender="-1.8854000000000002"></path></g></svg></g>
        </g>
  </svg>